<svg xmlns="http://www.w3.org/2000/svg" width="1200" height="800" viewBox="0 0 1200 800"><rect width="1200" height="800" fill="#11171d"/><rect x="54" y="54" width="1092" height="692" rx="8" fill="#1b242c" stroke="#52616c" stroke-width="2"/><text x="92" y="124" fill="#eef4f7" font-family="sans-serif" font-size="40" font-weight="700">DISTRONIC 左側控制區</text><text x="92" y="166" fill="#b8c5cc" font-family="sans-serif" font-size="22">僅限實車配備；駕駛須持續監控並準備接管</text><path d="M250 245 Q600 160 950 245 L890 580 Q600 650 310 580 Z" fill="#151b20" stroke="#a9b5bc" stroke-width="5"/><rect x="360" y="295" width="170" height="85" rx="8" fill="#1c2d39" stroke="#79b9e8" stroke-width="4"/><rect x="670" y="295" width="170" height="85" rx="8" fill="#1c2d39" stroke="#79b9e8" stroke-width="4"/><text x="445" y="348" text-anchor="middle" fill="#e8f2f7" font-family="sans-serif" font-size="30">SET + / −</text><text x="755" y="348" text-anchor="middle" fill="#e8f2f7" font-family="sans-serif" font-size="30">RES</text><rect x="430" y="435" width="340" height="56" rx="8" fill="#263640" stroke="#d89868" stroke-width="3"/><path d="M485 463 H715 M555 445 V481 M645 445 V481" stroke="#f2cfb5" stroke-width="6"/><text x="600" y="550" text-anchor="middle" fill="#efbb96" font-family="sans-serif" font-size="25">速度與車距控制位置示意</text><rect x="92" y="662" width="1016" height="54" rx="6" fill="#25333c"/><text x="600" y="697" text-anchor="middle" fill="#e5edf1" font-family="sans-serif" font-size="23" font-weight="700">依 F247 0109 02 第 375 至 381 頁人工重繪；配備與按鍵依 VIN</text></svg>
