<svg xmlns="http://www.w3.org/2000/svg" width="1200" height="800" viewBox="0 0 1200 800"><rect width="1200" height="800" fill="#11171d"/><rect x="54" y="54" width="1092" height="692" rx="8" fill="#1b242c" stroke="#52616c" stroke-width="2"/><text x="92" y="124" fill="#eef4f7" font-family="sans-serif" font-size="40" font-weight="700">EASY-PACK 尾門限高按鍵</text><text x="92" y="166" fill="#b8c5cc" font-family="sans-serif" font-size="22">僅限實車配備電動尾門；提示音次數以隨車手冊為準</text><path d="M280 580 Q300 250 600 225 Q900 250 920 580" fill="#151b20" stroke="#a9b5bc" stroke-width="7"/><path d="M360 525 Q390 310 600 292 Q810 310 840 525" fill="#24313a" stroke="#7f909b" stroke-width="4"/><rect x="465" y="520" width="270" height="70" rx="8" fill="#20272c" stroke="#c3ccd1" stroke-width="4"/><circle cx="650" cy="555" r="24" fill="#522c2a" stroke="#f08a82" stroke-width="5"/><path d="M650 545 V565 M640 555 H660" stroke="#ffd0cc" stroke-width="3"/><path d="M650 500 V440" stroke="#d89868" stroke-width="6"/><path d="M650 440 L628 470 M650 440 L672 470" stroke="#d89868" stroke-width="6"/><text x="750" y="565" fill="#ffaaa4" font-family="sans-serif" font-size="25">關閉／停止鍵</text><rect x="92" y="662" width="1016" height="54" rx="6" fill="#25333c"/><text x="600" y="697" text-anchor="middle" fill="#e5edf1" font-family="sans-serif" font-size="23" font-weight="700">依 F247 0109 02 第 192 頁與 F247 0159 02 第 195 頁人工重繪</text></svg>
