<svg xmlns="http://www.w3.org/2000/svg" width="1200" height="800" viewBox="0 0 1200 800"><rect width="1200" height="800" fill="#11171d"/><rect x="54" y="54" width="1092" height="692" rx="8" fill="#1b242c" stroke="#52616c" stroke-width="2"/><text x="92" y="124" fill="#eef4f7" font-family="sans-serif" font-size="40" font-weight="700">TPMS 參考值重新設定</text><text x="92" y="166" fill="#b8c5cc" font-family="sans-serif" font-size="22">選單路徑示意，不重現特定 MBUX 版本畫面</text><g font-family="sans-serif" font-size="25" text-anchor="middle"><rect x="105" y="300" width="210" height="170" rx="8" fill="#1a2a35" stroke="#79b9e8" stroke-width="4"/><text x="210" y="375" fill="#e8f2f7">先校正四輪</text><text x="210" y="410" fill="#b8c5cc">冷胎胎壓</text><rect x="365" y="300" width="210" height="170" rx="8" fill="#1a2a35" stroke="#79b9e8" stroke-width="4"/><text x="470" y="375" fill="#e8f2f7">開啟保養</text><text x="470" y="410" fill="#b8c5cc">輪胎選單</text><rect x="625" y="300" width="210" height="170" rx="8" fill="#302820" stroke="#d89868" stroke-width="4"/><text x="730" y="375" fill="#f3ded0">採用目前</text><text x="730" y="410" fill="#d9bda8">胎壓參考值</text><rect x="885" y="300" width="210" height="170" rx="8" fill="#1e3029" stroke="#69d2a3" stroke-width="4"/><text x="990" y="375" fill="#dcf4e9">行駛數分鐘</text><text x="990" y="410" fill="#b9dcca">完成學習</text></g><path d="M315 385 H365 M575 385 H625 M835 385 H885" stroke="#a9b5bc" stroke-width="6"/><rect x="92" y="662" width="1016" height="54" rx="6" fill="#25333c"/><text x="600" y="697" text-anchor="middle" fill="#e5edf1" font-family="sans-serif" font-size="23" font-weight="700">依 F247 0109 02 第 693 至 694 頁人工重繪；繁中名稱依實車</text></svg>
