<svg xmlns="http://www.w3.org/2000/svg" width="1200" height="800" viewBox="0 0 1200 800"><rect width="1200" height="800" fill="#11171d"/><rect x="54" y="54" width="1092" height="692" rx="8" fill="#1b242c" stroke="#52616c" stroke-width="2"/><text x="92" y="124" fill="#eef4f7" font-family="sans-serif" font-size="40" font-weight="700">遙控鑰匙緊急感應位置</text><text x="92" y="166" fill="#b8c5cc" font-family="sans-serif" font-size="22">儀表要求放置鑰匙時，依實車符號尋找標示位置</text><rect x="330" y="250" width="540" height="340" rx="90" fill="#171d22" stroke="#a9b5bc" stroke-width="6"/><circle cx="455" cy="420" r="88" fill="#252d33" stroke="#7f909b" stroke-width="5"/><circle cx="745" cy="420" r="88" fill="#252d33" stroke="#7f909b" stroke-width="5"/><rect x="535" y="330" width="130" height="210" rx="55" fill="#192b39" stroke="#79b9e8" stroke-width="5"/><path d="M575 395 Q600 360 625 395 V455 H575 Z" fill="none" stroke="#dcebf5" stroke-width="5"/><circle cx="600" cy="420" r="10" fill="#d89868"/><path d="M600 300 V250" stroke="#d89868" stroke-width="6"/><path d="M600 250 L578 282 M600 250 L622 282" stroke="#d89868" stroke-width="6"/><text x="600" y="625" text-anchor="middle" fill="#efbb96" font-family="sans-serif" font-size="25">將已取下鑰匙圈的遙控鑰匙平放在符號上</text><rect x="92" y="662" width="1016" height="54" rx="6" fill="#25333c"/><text x="600" y="697" text-anchor="middle" fill="#e5edf1" font-family="sans-serif" font-size="23" font-weight="700">依 F247 0109 02 第 302 至 303 頁人工重繪；實際位置依車內標示</text></svg>
